<svg xmlns="http://www.w3.org/2000/svg" xmlns:xlink="http://www.w3.org/1999/xlink" version="1.1" enable-background="new 0 0 100 100" xml:space="preserve" width="100" height="100" style=""><rect id="backgroundrect" width="100%" height="100%" x="0" y="0" fill="none" stroke="none"/><g class="currentLayer" style=""><title>Layer 1</title><path d="M49.563,89.661c-21.846,0-39.614-17.787-39.614-39.614c0-21.856,17.769-39.629,39.614-39.629  c21.841,0,39.625,17.773,39.625,39.629C89.188,71.874,71.404,89.661,49.563,89.661 M49.563,17.272  c-18.049,0-32.75,14.711-32.75,32.775c0,18.048,14.701,32.735,32.75,32.735c18.06,0,32.746-14.687,32.746-32.735  C82.31,31.984,67.623,17.272,49.563,17.272" id="svg_1" class="selected" fill="#057804" fill-opacity="1"/><path d="M42.526,54.244c0,0.044-0.021,0.044-0.021,0.102l0,0L42.526,54.244z" id="svg_2"/><path d="M56.6,46.025c0,0,0.021-0.047,0.021-0.076v-0.028L56.6,46.025z" id="svg_3"/><path d="M72.53,46.369c0.011-0.018,0.025-0.29,0.025-0.29c0-4.352-3.563-7.944-7.947-7.944c-4.342,0-7.923,3.502-7.987,7.814  L56.6,46.427v0.215v0.248v0.072l-0.054,6.23v0.652c0,1.097-0.882,1.979-1.979,1.979c-0.692,0-1.323-0.352-1.688-0.969  c-0.187-0.322-0.287-0.666-0.287-1.01v-0.652l-0.071-6.23v-0.072v-0.215v-0.186c0,0,0-0.48,0-0.409c0-4.352-3.577-7.944-7.976-7.944  c-4.406,0-7.979,3.592-7.979,8.03v0.187v-0.086l-0.015,0.309l0.015,0.068c0,0,0,0.162,0,0.276c0,0.014,0,0.043,0,0.043l-0.086,6.316  v0.566c0,1.097-0.911,1.979-1.993,1.979c-0.692,0-1.312-0.352-1.688-0.969c-0.187-0.322-0.287-0.666-0.287-1.01v-7.227v-2.352  c0-0.538-0.146-1.068-0.434-1.56c-0.549-0.91-1.487-1.444-2.549-1.444c-1.638,0-2.957,1.344-2.957,3.004v8.768v0.466v0.068v0.405  c0,4.388,3.549,7.947,7.915,7.947c4.258,0,7.832-3.402,8.019-7.574c0-0.029,0.032-0.631,0.032-0.631l-0.011-0.28v-0.183v-0.161  l0.025-6.883c0-1.064,0.896-1.975,1.993-1.975c0.691,0,1.309,0.376,1.67,0.968c0.205,0.319,0.305,0.663,0.305,1.007v0.624  l0.072,6.231v0.114c0,0,0,0.236,0,0.204v0.172v0.362v-0.101c0,0,0,0.129,0,0.158c0,4.388,3.573,7.947,7.976,7.947  c4.42,0,7.994-3.56,7.994-7.947v-0.405v-0.133c0,0,0-0.258,0-0.344l0.071-6.259v-0.624c0-1.064,0.893-1.975,1.976-1.975  c0.709,0,1.329,0.376,1.698,0.968c0.194,0.319,0.295,0.663,0.295,1.007v0.71l0.014,6.145v2.728c0,0.562,0.158,1.097,0.431,1.56  c0.552,0.903,1.502,1.44,2.552,1.44c1.649,0,2.99-1.341,2.99-3v-8.772C72.588,47.018,72.541,46.488,72.53,46.369z" id="svg_4" class="" fill="#057804" fill-opacity="1"/></g></svg>